<svg width="13" height="13" viewBox="0 0 13 13" fill="none" xmlns="http://www.w3.org/2000/svg">
<path d="M9.63764 12.8426H0.570781C0.25571 12.8426 0 12.5869 0 12.2718V3.20494C0 2.88987 0.25571 2.63416 0.570781 2.63416H9.63764C9.95271 2.63416 10.2084 2.88987 10.2084 3.20494V12.2718C10.2084 12.5869 9.95271 12.8426 9.63764 12.8426ZM1.14156 11.701H9.06686V3.77572H1.14156V11.701Z" fill="#3D3D3D"/>
<path d="M12.2719 10.2084C11.9568 10.2084 11.7011 9.95271 11.7011 9.63764V1.14156H3.20506C2.88999 1.14156 2.63428 0.885853 2.63428 0.570781C2.63428 0.25571 2.88999 0 3.20506 0H12.2719C12.587 0 12.8427 0.25571 12.8427 0.570781V9.63764C12.8427 9.95271 12.587 10.2084 12.2719 10.2084Z" fill="#3D3D3D"/>
</svg>
