<svg width="26" height="26" viewBox="0 0 26 26" fill="none" xmlns="http://www.w3.org/2000/svg">
<path d="M18.949 8.54357H17.3905H16.2996V7.53795C16.2996 6.48783 15.4454 5.6333 14.395 5.6333H11.6055C10.5553 5.6333 9.70081 6.48783 9.70081 7.53795V8.54357H8.60968H7.05141C6.73248 8.54357 6.47363 8.80241 6.47363 9.12134C6.47363 9.44028 6.73248 9.69912 7.05141 9.69912H8.0319V17.4517C8.0319 19.0588 9.33941 20.3666 10.9468 20.3666H15.0533C16.6604 20.3666 17.9682 19.0591 17.9682 17.4517V9.69912H18.949C19.2679 9.69912 19.5268 9.44028 19.5268 9.12134C19.5268 8.80241 19.2679 8.54357 18.949 8.54357ZM10.8564 7.53795C10.8564 7.12483 11.1923 6.78886 11.6055 6.78886H14.395C14.8081 6.78886 15.1441 7.12483 15.1441 7.53795V8.54357H10.8564V7.53795ZM16.8127 17.4517C16.8127 18.4218 16.0237 19.2111 15.0533 19.2111H10.9468C9.9767 19.2111 9.18745 18.4221 9.18745 17.4517V9.69912H10.2786H15.7218H16.8127V17.4517Z" fill="white"/>
<path d="M11.6422 11.4301C11.3233 11.4301 11.0645 11.689 11.0645 12.0079V16.403C11.0645 16.722 11.3233 16.9808 11.6422 16.9808C11.9612 16.9808 12.22 16.722 12.22 16.403V12.0079C12.22 11.689 11.9612 11.4301 11.6422 11.4301Z" fill="white"/>
<path d="M14.3581 11.4301C14.0391 11.4301 13.7803 11.689 13.7803 12.0079V16.403C13.7803 16.722 14.0391 16.9808 14.3581 16.9808C14.677 16.9808 14.9358 16.722 14.9358 16.403V12.0079C14.9358 11.689 14.6773 11.4301 14.3581 11.4301Z" fill="white"/>
<path d="M13 0C5.8318 0 0 5.8318 0 13C0 20.1682 5.8318 26 13 26C20.1682 26 26 20.1682 26 13C26 5.8318 20.1682 0 13 0ZM13 24.8444C6.46909 24.8444 1.15556 19.5309 1.15556 13C1.15556 6.46909 6.46909 1.15556 13 1.15556C19.5309 1.15556 24.8444 6.46909 24.8444 13C24.8444 19.5309 19.5309 24.8444 13 24.8444Z" fill="white"/>
</svg>
