<svg width="15" height="15" viewBox="0 0 15 15" fill="none" xmlns="http://www.w3.org/2000/svg">
<path d="M13.4468 9.3939C13.4447 9.38755 13.4407 9.38206 13.4387 9.3757C13.4286 9.34624 13.4156 9.31764 13.4005 9.2899C13.3948 9.27893 13.3898 9.26766 13.3832 9.25697C13.3604 9.22057 13.3344 9.18562 13.3026 9.15384L5.41362 1.26457C4.38113 0.232082 2.70096 0.232082 1.66847 1.26457L1.2646 1.66844C0.232112 2.70093 0.232112 4.3811 1.2646 5.41359L9.15387 13.3029C9.18565 13.3346 9.2206 13.3606 9.257 13.3835C9.26769 13.3901 9.27896 13.3947 9.28994 13.4008C9.31796 13.4158 9.34627 13.4288 9.37574 13.4389C9.38209 13.4412 9.38758 13.445 9.39394 13.447L14.1872 14.9085C14.2424 14.9253 14.2993 14.9333 14.3556 14.9333C14.5064 14.9333 14.654 14.8741 14.7641 14.7641C14.9149 14.6133 14.9706 14.3914 14.9082 14.1871L13.4468 9.3939ZM2.08158 2.48541L2.48545 2.08155C3.06785 1.49944 4.01454 1.49973 4.59665 2.08155L12.0774 9.56233L9.56265 12.0771L2.08158 4.59662C1.49976 4.0145 1.49976 3.06753 2.08158 2.48541ZM10.6515 12.6222L12.6223 10.6514L13.4866 13.4866L10.6515 12.6222Z" fill="#3D3D3D"/>
</svg>
