<svg width="26" height="26" viewBox="0 0 26 26" fill="none" xmlns="http://www.w3.org/2000/svg">
<path d="M18.4468 14.3939C18.4447 14.3875 18.4407 14.382 18.4387 14.3757C18.4286 14.3462 18.4156 14.3176 18.4005 14.2899C18.3948 14.2789 18.3898 14.2676 18.3832 14.257C18.3604 14.2206 18.3344 14.1856 18.3026 14.1538L10.4136 6.26456C9.38113 5.23207 7.70096 5.23207 6.66847 6.26456L6.2646 6.66842C5.23211 7.70091 5.23211 9.38109 6.2646 10.4136L14.1539 18.3028C14.1856 18.3346 14.2206 18.3606 14.257 18.3834C14.2677 18.3901 14.279 18.3947 14.2899 18.4008C14.318 18.4158 14.3463 18.4288 14.3757 18.4389C14.3821 18.4412 14.3876 18.445 14.3939 18.447L19.1872 19.9085C19.2424 19.9252 19.2993 19.9333 19.3556 19.9333C19.5064 19.9333 19.654 19.8741 19.7641 19.764C19.9149 19.6132 19.9706 19.3914 19.9082 19.1871L18.4468 14.3939ZM7.08158 7.4854L7.48545 7.08153C8.06785 6.49942 9.01454 6.49971 9.59665 7.08153L17.0774 14.5623L14.5626 17.0771L7.08158 9.5966C6.49976 9.01449 6.49976 8.06751 7.08158 7.4854ZM15.6515 17.6222L17.6223 15.6514L18.4866 18.4866L15.6515 17.6222Z" fill="#979797"/>
<path d="M13 0C5.8318 0 0 5.8318 0 13C0 20.1682 5.8318 26 13 26C20.1682 26 26 20.1682 26 13C26 5.8318 20.1682 0 13 0ZM13 24.8444C6.46909 24.8444 1.15556 19.5309 1.15556 13C1.15556 6.46909 6.46909 1.15556 13 1.15556C19.5309 1.15556 24.8444 6.46909 24.8444 13C24.8444 19.5309 19.5309 24.8444 13 24.8444Z" fill="#979797"/>
</svg>
