<svg width="25" height="20" viewBox="0 0 25 20" fill="none" xmlns="http://www.w3.org/2000/svg">
<path d="M3.77254 19H3.07377C1.92846 19 1 18.0715 1 16.9262V10L4.05627 2.82441C4.52749 1.71806 5.61382 1 6.81634 1H17.9823C19.1594 1 20.2277 1.68833 20.7142 2.76016L24 10V16.8005C24 18.0153 23.0153 19 21.8005 19H20.9761C20.2167 19 19.6011 18.3844 19.6011 17.625C19.6011 16.8656 18.9855 16.25 18.2261 16.25H6.52254C5.76315 16.25 5.14754 16.8656 5.14754 17.625C5.14754 18.3844 4.53193 19 3.77254 19Z" stroke="#D0C9BC" stroke-width="2"/>
<path d="M8.21208 5.00386L6.5 8H19.5L17.2991 4.91876C17.1114 4.65597 16.8083 4.5 16.4854 4.5H9.08032C8.72147 4.5 8.39012 4.69229 8.21208 5.00386Z" stroke="#D0C9BC"/>
<path d="M11.4333 12.3L10.5 11.6H15L14.0667 12.3C13.8936 12.4298 13.683 12.5 13.4667 12.5H12.0333C11.817 12.5 11.6064 12.4298 11.4333 12.3Z" stroke="#D0C9BC" stroke-width="2"/>
<circle cx="5.5" cy="12.5" r="1.5" fill="#D0C9BC"/>
<circle cx="19.5" cy="12.5" r="1.5" fill="#D0C9BC"/>
</svg>
