<svg width="22" height="26" viewBox="0 0 22 26" fill="none" xmlns="http://www.w3.org/2000/svg">
<path d="M10.2593 0.640386C10.5722 0.451232 10.9632 0.447615 11.2792 0.63141L21.6234 6.65287L21.6248 18.7165L21.6158 18.8484C21.5812 19.109 21.4452 19.3461 21.2374 19.5072L21.1276 19.581L10.7689 25.6101L0.801749 19.5817C0.502609 19.4007 0.319946 19.0765 0.319756 18.7269L0.319065 6.65149L10.2593 0.640386ZM11.7681 22.7133L19.6236 18.142L19.6236 9.06421L11.7674 13.918L11.7681 22.7133ZM2.31885 18.1627L9.76695 22.6677L9.76626 13.9069L2.31816 9.12429L2.31885 18.1627ZM10.7772 12.1792L18.7149 7.27435L10.7855 2.65813L3.14542 7.27918L10.7772 12.1792Z" fill="#D0C9BC"/>
</svg>
