<svg width="21" height="21" viewBox="0 0 21 21" fill="none" xmlns="http://www.w3.org/2000/svg">
<g clip-path="url(#clip0_3_4)">
<path d="M20.3999 20.8612H0.57625C0.321769 20.8612 0.115234 20.6546 0.115234 20.4002V0.576494C0.115234 0.322014 0.321769 0.115479 0.57625 0.115479H16.8688C16.9909 0.115479 17.1083 0.164116 17.1947 0.250556L20.7259 3.78171C20.8123 3.86815 20.8609 3.98547 20.8609 4.10764V20.4002C20.8609 20.6546 20.6544 20.8612 20.3999 20.8612ZM1.03727 19.9391H19.9389V4.29873L16.6779 1.03751H1.03727V19.9391Z" fill="black"/>
<path d="M16.675 20.8611H4.30086C4.04638 20.8611 3.83984 20.6546 3.83984 20.4001V14.4021C3.83984 13.6327 4.4659 13.0066 5.23534 13.0066H15.7405C16.5099 13.0066 17.136 13.6327 17.136 14.4021V20.4001C17.136 20.6546 16.9295 20.8611 16.675 20.8611ZM4.76187 19.9391H16.214V14.4021C16.214 14.1409 16.0017 13.9286 15.7405 13.9286H5.23534C4.9744 13.9286 4.76187 14.1409 4.76187 14.4021V19.9391Z" fill="black"/>
<path d="M13.0257 5.40241H7.94995C7.18052 5.40241 6.55469 4.77658 6.55469 4.00714V0.576494C6.55469 0.322014 6.76122 0.115479 7.0157 0.115479H13.9602C14.2147 0.115479 14.4212 0.322014 14.4212 0.576494V4.00714C14.421 4.77658 13.7952 5.40241 13.0257 5.40241ZM7.47672 1.03751V4.00714C7.47672 4.26808 7.68902 4.48037 7.94995 4.48037H13.0257C13.2869 4.48037 13.4992 4.26808 13.4992 4.00714V1.03751H7.47672Z" fill="black"/>
</g>
<defs>
<clipPath id="clip0_3_4">
<rect width="21" height="21" fill="white"/>
</clipPath>
</defs>
</svg>
