<svg width="14" height="16" viewBox="0 0 14 16" fill="none" xmlns="http://www.w3.org/2000/svg">
<path d="M12.9485 3.54357H11.39H10.2991V2.53795C10.2991 1.48783 9.44488 0.633301 8.39448 0.633301H5.60497C4.55486 0.633301 3.70032 1.48783 3.70032 2.53795V3.54357H2.60919H1.05092C0.731989 3.54357 0.473145 3.80241 0.473145 4.12134C0.473145 4.44028 0.731989 4.69912 1.05092 4.69912H2.03141V12.4517C2.03141 14.0588 3.33892 15.3666 4.9463 15.3666H9.05285C10.6599 15.3666 11.9677 14.0591 11.9677 12.4517V4.69912H12.9485C13.2675 4.69912 13.5263 4.44028 13.5263 4.12134C13.5263 3.80241 13.2675 3.54357 12.9485 3.54357ZM4.85588 2.53795C4.85588 2.12483 5.19186 1.78886 5.60497 1.78886H8.39448C8.80759 1.78886 9.14357 2.12483 9.14357 2.53795V3.54357H4.85588V2.53795ZM10.8122 12.4517C10.8122 13.4218 10.0232 14.2111 9.05285 14.2111H4.9463C3.97621 14.2111 3.18697 13.4221 3.18697 12.4517V4.69912H4.2781H9.72134H10.8122V12.4517Z" fill="#3D3D3D"/>
<path d="M5.64223 6.43015C5.3233 6.43015 5.06445 6.68899 5.06445 7.00792V11.4031C5.06445 11.722 5.3233 11.9809 5.64223 11.9809C5.96116 11.9809 6.22001 11.722 6.22001 11.4031V7.00792C6.22001 6.68899 5.96116 6.43015 5.64223 6.43015Z" fill="#3D3D3D"/>
<path d="M8.35756 6.43015C8.03863 6.43015 7.77979 6.68899 7.77979 7.00792V11.4031C7.77979 11.722 8.03863 11.9809 8.35756 11.9809C8.6765 11.9809 8.93534 11.722 8.93534 11.4031V7.00792C8.93534 6.68899 8.67679 6.43015 8.35756 6.43015Z" fill="#3D3D3D"/>
</svg>
