<svg width="15" height="9" viewBox="0 0 15 9" fill="none" xmlns="http://www.w3.org/2000/svg">
<path d="M7.11494 8.94118C4.76401 8.94118 2.40722 7.53912 0.10957 4.77389C-0.0365234 4.598 -0.0365234 4.34302 0.10957 4.16713C2.40722 1.40207 4.76401 0 7.11494 0C9.46572 0 11.8227 1.40207 14.1203 4.16713C14.2666 4.34302 14.2666 4.598 14.1203 4.77389C11.8227 7.53896 9.46572 8.94118 7.11494 8.94118ZM1.09633 4.47051C3.11951 6.80771 5.143 7.99213 7.11494 7.99213C9.08704 7.99213 11.1104 6.80787 13.1335 4.47051C11.1104 2.13331 9.08704 0.949053 7.11494 0.949053C5.143 0.949053 3.11951 2.13331 1.09633 4.47051Z" fill="#3D3D3D"/>
<path d="M7.11487 7.15952C5.63275 7.15952 4.427 5.95328 4.427 4.47054C4.427 2.9878 5.63275 1.78156 7.11487 1.78156C8.59699 1.78156 9.80274 2.9878 9.80274 4.47054C9.80274 5.95328 8.59699 7.15952 7.11487 7.15952ZM7.11487 2.73061C6.15593 2.73061 5.37566 3.5112 5.37566 4.47054C5.37566 5.42987 6.15593 6.21047 7.11487 6.21047C8.0738 6.21047 8.85408 5.42987 8.85408 4.47054C8.85408 3.5112 8.0738 2.73061 7.11487 2.73061Z" fill="#3D3D3D"/>
</svg>
